<svg width="63" height="37" viewBox="0 0 63 37" fill="none" xmlns="http://www.w3.org/2000/svg">
<path d="M16.3903 19.6113C18.8793 19.6016 21.3643 19.4107 23.8256 19.0401C25.6675 18.7612 27.4897 18.3653 29.2813 17.8548V10.376L24.784 8.57715L18.0462 10.5022L16.3903 19.6113Z" fill="#42C636"/>
<path d="M1.2834 26.5801L0.767399 29.1638C1.45965 28.8181 2.30846 28.1931 3.10652 27.0699C2.37599 26.8878 1.76362 26.7193 1.2834 26.5801Z" fill="#42C636"/>
<path d="M23.7344 6.56957V1.12781C22.7229 1.25817 21.726 1.48406 20.7571 1.80245C18.1969 2.65583 15.8855 4.13019 13.8267 5.93972L17.2877 8.41141L23.7344 6.56957Z" fill="#42C636"/>
<path d="M20.434 26.6799C26.7124 26.4362 32.4341 25.1081 37.4406 22.7324C43.3547 19.9261 48.2955 15.6312 52.1398 9.95824C51.3948 9.49938 50.2331 8.80727 48.7659 8.00671C42.5257 15.2437 34.252 19.6922 24.1607 21.2334C21.4834 21.6364 18.7795 21.8361 16.0721 21.8309C11.8653 21.8179 7.67014 21.389 3.54777 20.5506C2.77731 22.1913 2.22068 23.5586 1.88246 24.4385C4.55467 25.2056 11.8617 27.0124 20.434 26.6799Z" fill="#42C636"/>
<path d="M15.8607 10.1188L12.1908 7.49792C8.89329 10.8846 6.34326 15.0298 4.56146 18.4896C7.72167 19.1 10.9245 19.4641 14.1411 19.5787L15.8607 10.1188Z" fill="#42C636"/>
<path d="M46.7467 6.94175C44.4123 5.74575 42.0141 4.67869 39.5628 3.74536L38.4321 6.00696L43.4714 10.2066C44.6305 9.18808 45.7245 8.09763 46.7467 6.94175Z" fill="#42C636"/>
<path d="M31.5 10.3106V17.1491C35.1822 15.8737 38.635 14.0136 41.7257 11.6402L36.8943 7.61426L31.5 10.3106Z" fill="#42C636"/>
<path d="M36.22 5.46997L37.4564 2.99704C33.7099 1.74996 29.707 0.879797 25.9531 0.960226V6.6552L30.3401 8.40996L36.22 5.46997Z" fill="#42C636"/>
<path d="M61.1318 7.02796C60.5048 6.70153 59.7898 6.58407 59.0913 6.69271C58.3928 6.80136 57.7473 7.13042 57.249 7.63187L54.5531 10.3277C53.1114 12.5774 51.4579 14.6841 49.6153 16.6192C51.3432 17.0804 52.9146 17.9995 54.1637 19.2795C59.0782 15.9446 62.1315 12.7758 62.5833 10.5168C62.9183 8.84622 62.4568 7.73768 61.1318 7.02796ZM59.2344 11.8438C59.015 11.8438 58.8005 11.7787 58.618 11.6568C58.4356 11.5349 58.2934 11.3616 58.2094 11.1589C58.1255 10.9562 58.1035 10.7331 58.1463 10.5179C58.1891 10.3028 58.2948 10.1051 58.4499 9.94993C58.6051 9.79478 58.8027 9.68913 59.0179 9.64632C59.2331 9.60351 59.4562 9.62548 59.6589 9.70945C59.8616 9.79342 60.0349 9.93561 60.1568 10.118C60.2787 10.3005 60.3437 10.515 60.3437 10.7344C60.3437 11.0286 60.2269 11.3108 60.0188 11.5188C59.8108 11.7269 59.5286 11.8438 59.2344 11.8438Z" fill="#42C636"/>
<path d="M8.20312 32.9218C8.042 32.9218 7.88281 32.8867 7.73662 32.819C7.59043 32.7512 7.46076 32.6524 7.35661 32.5295C7.25247 32.4065 7.17636 32.2624 7.13358 32.107C7.09079 31.9517 7.08236 31.7889 7.10887 31.63L7.70931 28.03C6.88699 27.8901 6.11792 27.7431 5.40861 27.5956C4.5469 29.039 3.57148 29.9893 2.65625 30.6134V32.9218C2.65724 33.8042 3.0082 34.6501 3.63213 35.2741C4.25606 35.898 5.10201 36.249 5.98438 36.2499H11.5312C11.5314 35.8128 11.4454 35.38 11.2782 34.9762C11.111 34.5723 10.8659 34.2054 10.5568 33.8963C10.2477 33.5872 9.88077 33.3421 9.47692 33.1749C9.07306 33.0077 8.64022 32.9217 8.20312 32.9218Z" fill="#42C636"/>
<path d="M41.4844 24.0469V23.0916C40.4714 23.6913 39.4278 24.2459 38.3534 24.7556C33.0641 27.2579 27.0398 28.6524 20.4479 28.9004C19.7168 28.9281 18.9947 28.9406 18.2855 28.9406C15.4815 28.9366 12.681 28.7445 9.90269 28.3657L9.48806 30.8525C10.4876 31.0889 11.4012 31.6 12.1257 32.3281C12.23 32.4323 12.3282 32.5409 12.4229 32.6517C19.4149 33.8537 35.6284 35.6139 47.2495 28.9292C46.8672 28.6404 46.401 28.4843 45.9219 28.4844C44.7454 28.483 43.6175 28.0151 42.7856 27.1832C41.9536 26.3513 41.4857 25.2234 41.4844 24.0469Z" fill="#42C636"/>
<path d="M54.7969 30.7031V26.2656C54.7971 24.315 54.0632 22.4358 52.741 21.0018C51.4189 19.5677 49.6054 18.6839 47.6612 18.526C46.4134 19.6615 45.0911 20.7125 43.7031 21.6718V24.0468C43.7038 24.635 43.9378 25.199 44.3538 25.6149C44.7697 26.0309 45.3336 26.2649 45.9219 26.2656C47.0988 26.2656 48.2275 26.7331 49.0597 27.5653C49.8919 28.3975 50.3594 29.5262 50.3594 30.7031V31.8124C50.3604 32.6948 50.7113 33.5407 51.3353 34.1647C51.9592 34.7886 52.8051 35.1396 53.6875 35.1406H59.2344C59.2333 34.2582 58.8824 33.4123 58.2585 32.7884C57.6345 32.1644 56.7886 31.8135 55.9062 31.8124C55.612 31.8124 55.3299 31.6956 55.1218 31.4875C54.9138 31.2795 54.7969 30.9973 54.7969 30.7031Z" fill="#42C636"/>
</svg>
